<svg xmlns="http://www.w3.org/2000/svg" width="50" height="50" fill="none" viewBox="0 0 50 50">
  <path fill="#49FFA4" d="M9.05 6.261c-.792.092-1.596.495-2.079 1.043a2.826 2.826 0 0 0-.682 1.362c-.04.197-.042.935-.042 16.193v15.987l.054.24a3.37 3.37 0 0 0 2.513 2.587l.223.056h32.137l.225-.063a2.96 2.96 0 0 0 1.055-.501c.62-.474 1.018-1.1 1.224-1.93l.052-.201.007-16.08c.004-11.768 0-16.13-.02-16.267a2.821 2.821 0 0 0-1.523-2.112 3.153 3.153 0 0 0-1.078-.316C40.87 6.23 9.308 6.23 9.05 6.26Zm7.01 6.304c.876.178 1.533.691 1.91 1.486.42.888.384 2.032-.09 2.838-.419.713-1.084 1.165-1.928 1.313-.31.054-.86.056-1.16.002-1.194-.21-2.04-1.083-2.242-2.306a3.08 3.08 0 0 1-.025-.638c.014-.464.065-.726.213-1.076.41-.973 1.226-1.55 2.37-1.676.197-.02.724.01.951.057Zm16.242 7.91c1.167.165 2.161.594 2.97 1.288 1.116.954 1.838 2.4 2.103 4.21.121.823.117.586.124 6.24l.01 5.27H32.14l-.01-4.918c-.004-3.704-.013-4.963-.034-5.104-.211-1.378-.67-2.152-1.515-2.543-.586-.274-1.425-.312-2.081-.094-.617.206-1.123.607-1.512 1.2-.3.455-.446.86-.497 1.365-.019.178-.026 1.774-.026 5.176v4.917h-5.368v-16.69h5.368l.005 1.16.007 1.163.206-.283c.91-1.243 1.857-1.927 3.099-2.239.258-.066.567-.117.95-.162.199-.023 1.314.007 1.57.045Zm-14.44 8.662v8.345h-5.344v-16.69h5.344v8.345Z"/>
</svg>
