<svg width="32" height="32" viewBox="0 0 32 32" fill="none" xmlns="http://www.w3.org/2000/svg">
<path d="M29.5493 7.54124C28.5314 7.99149 27.4519 8.2872 26.3466 8.41857C27.5116 7.72181 28.3836 6.62525 28.7999 5.33324C27.7066 5.9839 26.5079 6.4399 25.2586 6.68657C24.4194 5.78867 23.3071 5.19319 22.0946 4.99268C20.882 4.79218 19.6372 4.99789 18.5536 5.57784C17.4701 6.15779 16.6085 7.07948 16.1028 8.19963C15.5971 9.31977 15.4756 10.5756 15.7573 11.7719C13.5401 11.6608 11.3711 11.0846 9.391 10.0808C7.41094 9.07698 5.66412 7.66797 4.26395 5.94524C3.76833 6.7965 3.50789 7.7642 3.50928 8.74924C3.50928 10.6826 4.49328 12.3906 5.98928 13.3906C5.10396 13.3627 4.23812 13.1236 3.46395 12.6932V12.7626C3.46422 14.0502 3.90977 15.2981 4.72508 16.2946C5.54038 17.2912 6.67526 17.9752 7.93728 18.2306C7.11543 18.4533 6.25369 18.4861 5.41728 18.3266C5.7731 19.4349 6.46662 20.4042 7.40074 21.0987C8.33485 21.7933 9.46279 22.1783 10.6266 22.1999C9.46992 23.1083 8.14552 23.7799 6.72912 24.1761C5.31273 24.5724 3.83212 24.6856 2.37195 24.5092C4.92088 26.1485 7.88808 27.0187 10.9186 27.0159C21.1759 27.0159 26.7853 18.5186 26.7853 11.1492C26.7853 10.9092 26.7786 10.6666 26.7679 10.4292C27.8598 9.64013 28.8021 8.66259 29.5506 7.54257L29.5493 7.54124Z" fill="#49FFA4"/>
</svg>
