<svg width="32" height="32" viewBox="0 0 32 32" fill="none" xmlns="http://www.w3.org/2000/svg">
<path d="M13.4347 14.6665C14.2347 14.6665 14.8827 15.2665 14.868 15.9998C14.868 16.7332 14.236 17.3332 13.4347 17.3332C12.648 17.3332 12 16.7332 12 15.9998C12 15.2665 12.6333 14.6665 13.4347 14.6665ZM18.5653 14.6665C19.3667 14.6665 20 15.2665 20 15.9998C20 16.7332 19.3667 17.3332 18.5653 17.3332C17.7787 17.3332 17.132 16.7332 17.132 15.9998C17.132 15.2665 17.764 14.6665 18.5653 14.6665ZM25.188 2.6665C26.7387 2.6665 28 3.9545 28 5.5505V30.6665L25.052 28.0065L23.392 26.4385L21.636 24.7718L22.364 27.3625H6.812C5.26133 27.3625 4 26.0745 4 24.4785V5.5505C4 3.9545 5.26133 2.6665 6.812 2.6665H25.1867H25.188ZM19.8947 20.9505C22.9253 20.8532 24.092 18.8225 24.092 18.8225C24.092 14.3145 22.116 10.6598 22.116 10.6598C20.1427 9.14917 18.2627 9.1905 18.2627 9.1905L18.0707 9.4145C20.4027 10.1425 21.4853 11.1932 21.4853 11.1932C20.2121 10.4758 18.8089 10.019 17.3573 9.84917C16.4366 9.74518 15.5066 9.75413 14.588 9.87584C14.5053 9.87584 14.436 9.8905 14.3547 9.90384C13.8747 9.9465 12.708 10.1278 11.2413 10.7865C10.7347 11.0238 10.432 11.1932 10.432 11.1932C10.432 11.1932 11.5707 10.0865 14.0387 9.3585L13.9013 9.1905C13.9013 9.1905 12.0227 9.14917 10.048 10.6612C10.048 10.6612 8.07333 14.3145 8.07333 18.8225C8.07333 18.8225 9.22533 20.8518 12.256 20.9505C12.256 20.9505 12.7627 20.3212 13.176 19.7892C11.4333 19.2558 10.776 18.1358 10.776 18.1358C10.776 18.1358 10.912 18.2345 11.1587 18.3745C11.172 18.3878 11.1853 18.4025 11.2133 18.4158C11.2547 18.4452 11.296 18.4585 11.3373 18.4865C11.68 18.6825 12.0227 18.8358 12.3373 18.9625C12.9 19.1865 13.572 19.4105 14.3547 19.5652C15.5271 19.795 16.7325 19.7995 17.9067 19.5785C18.5906 19.4564 19.2578 19.2546 19.8947 18.9772C20.3747 18.7945 20.9093 18.5278 21.472 18.1505C21.472 18.1505 20.7867 19.2985 18.9893 19.8172C19.4013 20.3492 19.896 20.9505 19.896 20.9505H19.8947Z" fill="#49FFA4"/>
</svg>
