<svg width="32" height="32" viewBox="0 0 32 32" fill="none" xmlns="http://www.w3.org/2000/svg">
<path d="M3.20483 9.4143L16 15.8111L28.7952 9.4143C28.7479 8.59901 28.3906 7.83268 27.7965 7.27226C27.2025 6.71185 26.4167 6.39975 25.6 6.3999H6.40003C5.58337 6.39975 4.79755 6.71185 4.20352 7.27226C3.60949 7.83268 3.2522 8.59901 3.20483 9.4143Z" fill="#49FFA4"/>
<path d="M28.8 12.9888L16 19.3888L3.19995 12.9888V22.4C3.19995 23.2487 3.53709 24.0626 4.13721 24.6627C4.73733 25.2628 5.55126 25.6 6.39995 25.6H25.6C26.4486 25.6 27.2626 25.2628 27.8627 24.6627C28.4628 24.0626 28.8 23.2487 28.8 22.4V12.9888Z" fill="#49FFA4"/>
</svg>
